<svg width="48" height="48" viewBox="0 0 48 48" xmlns="http://www.w3.org/2000/svg"><g fill="none" fill-rule="evenodd"><path d="M24 .5c6.49 0 12.364 2.63 16.617 6.883A23.426 23.426 0 0 1 47.5 24c0 6.49-2.63 12.364-6.883 16.617A23.426 23.426 0 0 1 24 47.5c-6.49 0-12.364-2.63-16.617-6.883A23.426 23.426 0 0 1 .5 24c0-6.49 2.63-12.364 6.883-16.617A23.426 23.426 0 0 1 24 .5Z" stroke="#EEE"/><g transform="translate(17 11)"><rect fill="#5697FA" width="14" height="26" rx="4.62"/><path fill="#0864EE" d="M0 5h14v16H0z"/><rect fill="#0864EE" x="5" y="2" width="4" height="1" rx=".5"/><circle fill="#0864EE" cx="7" cy="23" r="1"/></g><path fill="#FFF" d="M18 17h12v14H18z"/><path d="M26.16 24.72v1.44h2.16v-1.44h.72v1.44h-.72v.729h.72v.711l-.72-.001v.721h.72v.72h-.72v-.72h-2.16v.72h-.72v-.72h.72v-2.16h-.72v-1.44h.72Zm-.72 1.44v1.44l-.72-.001v1.441h-1.44v-.72H24v-.725h.719l.001-1.435h.72Zm-2.88-.72v3.6h-3.6v-3.6h3.6Zm-.72.72h-2.16v2.16h2.16v-2.16Zm2.16.73v.71h-.72v-.71H24Zm3.6-.01h-.72v.72h.72v-.72Zm-6.48.01v.705h-.72v-.705h.72ZM24 24.01l-.001.709.721.001v.72l-.721-.001.001.721h-.72v-2.15H24Zm3.6.71v.706h-.72v-.706h.72Zm-6.48-1.44V24h.72v-.72h.72v1.44H20.4V24h-.72v-.72h1.44Zm-1.44.73v.705h-.72v-.705h.72Zm9.36-.73V24l-.72-.001v.716h-.72V24l-.72.001v-.72h2.16Zm-4.32-1.435v1.435h1.44V24h-1.44v-.72h-1.44v-.72H24v-.715h.72Zm-2.16-2.885v3.6h-3.6v-3.6h3.6Zm6.48 0v3.6h-3.6v-3.6h3.6Zm-4.32 0v.72H24v.719l.72.001v.72l-.72-.001v.726h-.72V18.96h1.44Zm-2.88.72h-2.16v2.16h2.16v-2.16Zm6.48 0h-2.16v2.16h2.16v-2.16Zm-7.2.72v.72h-.72v-.72h.72Zm6.48 0v.72h-.72v-.72h.72Z" fill="#3483FA" fill-rule="nonzero"/></g></svg>